<svg width="118" height="97" viewBox="0 0 118 97" fill="none" xmlns="http://www.w3.org/2000/svg">
<g clip-path="url(#clip0_166_392)">
<path d="M23.3347 50.0534C19.9254 51.9416 15.8517 51.2772 12.285 53.4277C11.9179 47.9728 12.0578 42.99 13.0543 38.0771C13.4914 35.979 13.1243 34.388 12.0578 32.5697C6.81265 23.6355 4.78454 14.3692 9.80236 4.56086C11.2535 4.70073 10.4842 5.67981 10.4842 6.36167C10.4842 9.91086 11.0262 13.3726 12.355 16.747C13.2467 15.9952 12.6697 15.1734 12.5473 14.4566C12.2326 12.6908 12.1102 10.9424 12.2501 9.15906C12.39 7.28831 12.1976 4.89305 13.4565 3.82654C14.8027 2.6901 16.4287 4.78814 17.9498 5.38259C24.069 7.81282 30.1534 6.79877 36.2377 5.34762C45.3817 3.19713 54.4557 0.557094 63.9668 0.050067C67.551 -0.142254 71.0477 0.20742 74.4395 1.30889C80.2966 3.19713 84.143 7.14844 85.8739 13.0404C86.241 14.2818 86.6431 14.9636 88.0069 15.3833C99.3538 18.8975 104.547 27.3421 106.138 38.5142C106.732 42.6228 106.715 46.7315 106.278 50.8926C106.068 53.0081 105.526 53.5501 103.673 52.4836C102.693 51.9241 101.277 52.029 100.805 50.6653C99.9832 49.4415 100.123 48.0253 100.036 46.6616C99.651 40.5772 97.0984 35.507 92.9373 31.1535C91.4686 29.615 90.4021 29.5101 88.8985 31.2759C82.7093 38.5491 75.3836 44.1964 65.9425 46.6266C60.575 48.0078 55.155 48.9519 49.5952 48.2001C48.3189 48.0253 46.1859 48.2875 46.081 46.8364C45.9586 45.3153 48.0916 45.3328 49.3504 45.0181C53.9661 43.8642 58.3895 42.2382 62.5506 39.9653C63.9143 39.2135 65.2256 38.4093 66.6243 36.8532C57.5153 36.0315 48.9308 34.0733 40.189 34.965C33.2655 35.6643 28.44 39.6156 25.4503 45.8573C24.7859 47.2735 24.2789 48.7771 23.3347 50.0534Z" fill="#1F304F"/>
<path d="M47.6198 57.6938C55.6623 60.6486 63.6524 59.5121 71.7123 57.6239C86.3287 54.2146 100.84 55.5608 115.264 58.9527C117.013 59.3723 117.729 60.4038 117.677 62.1172C117.624 63.5858 117.485 65.0719 117.485 66.5406C117.485 67.7469 117.362 68.6561 115.771 68.5162C114.355 68.3938 114.338 69.5478 114.198 70.5094C113.743 73.8138 113.568 77.1706 112.694 80.4226C110.211 89.5666 103.061 95.511 93.6544 96.3153C89.3184 96.6824 85.0174 96.7524 80.6815 96.2453C76.2581 95.7208 72.604 93.92 69.8241 90.4058C66.2225 85.8425 63.7223 80.7898 63.2677 74.8978C62.988 71.2262 61.9215 70.0548 58.7569 70.1072C55.47 70.1597 54.3336 71.436 54.1063 75.2125C53.7216 81.6465 51.1166 86.9615 46.7631 91.787C39.0179 100.354 11.079 98.9728 5.71147 83.0626C4.40019 79.0764 3.59594 75.0551 3.77078 70.8765C3.80574 69.7751 3.94561 68.5162 2.31963 68.6036C0.169139 68.7085 0.0467533 67.4147 0.0117859 65.7887C-0.0931162 59.7393 0.378943 59.0576 6.56817 57.9211C20.0306 55.4384 33.528 54.8265 47.0429 57.6414C47.2527 57.4316 47.445 57.4665 47.6198 57.6938Z" fill="#1F304F"/>
<path d="M79.9292 7.67287C70.488 2.77744 61.4315 4.31601 52.4274 7.30572C46.5354 9.28137 40.6259 11.0122 34.2968 9.9982C31.5868 9.56111 29.0692 8.66944 26.3242 6.18676C38.6502 8.68693 48.8607 3.07467 59.6656 0.854239C64.0365 -0.0374289 68.4249 -0.369619 72.7609 1.11649C75.9254 2.183 78.3557 4.08872 79.9292 7.67287Z" fill="#FDFEFD"/>
<path d="M29.1561 61.785C35.2579 61.75 40.5729 62.6067 45.7656 64.2502C48.8602 65.2293 50.7484 67.3098 50.5037 70.2121C49.9442 76.7685 48.4581 83.0102 43.3703 87.7832C37.5832 93.2206 25.6594 94.2347 17.8616 89.8638C10.2562 85.6152 6.70705 77.4504 8.50786 68.7959C9.01489 66.3307 10.4486 65.0195 12.669 64.3726C18.2812 62.7641 23.9634 61.6626 29.1561 61.785Z" fill="white"/>
<path d="M107.276 79.1288C107.678 83.6046 105.213 86.6817 101.961 89.077C96.8204 92.8535 90.8409 91.9793 84.9315 91.752C76.0847 91.4198 71.0494 86.6817 68.6891 78.5693C67.6576 75.0026 68.1646 71.3485 68.4443 67.7469C68.5492 66.3307 69.4234 65.1069 70.8396 64.6348C78.48 62.1696 86.2602 61.0332 94.2677 62.5368C95.9287 66.1034 95.037 69.8799 95.1419 73.5515C95.2818 78.884 95.1769 78.849 100.58 78.7791C102.835 78.7616 105.108 77.9923 107.276 79.1288Z" fill="white"/>
<path d="M107.272 79.1287C103.566 79.2336 99.8418 79.2685 96.1352 79.4434C94.4393 79.5133 94.2295 78.6391 94.247 77.2579C94.2995 72.345 94.282 67.4496 94.2995 62.5367C98.8627 67.8692 103.566 73.1143 107.272 79.1287Z" fill="#E5E5E5"/>
<path d="M27.6167 77.8874C23.4906 77.8874 19.3469 77.9049 15.2208 77.8699C14.434 77.8699 13.4025 78.2371 13.3675 76.716C13.35 75.2648 14.1368 75.1599 15.2208 75.1599C23.4906 75.1774 31.7604 75.1949 40.0301 75.1599C41.1841 75.1599 41.8659 75.3348 41.8484 76.7335C41.831 78.272 40.7994 77.8524 40.0127 77.8699C35.869 77.8874 31.7429 77.8874 27.6167 77.8874Z" fill="#1F304F"/>
<path d="M27.8126 85.5627C24.3683 85.5627 20.9241 85.5627 17.4798 85.5627C16.6056 85.5627 15.6964 85.7375 15.7314 84.3039C15.7664 83.08 16.3259 82.8353 17.3924 82.8353C24.3858 82.8527 31.3618 82.8527 38.3553 82.8353C39.3169 82.8353 40.0337 82.9052 40.0862 84.2165C40.1561 85.8774 39.0721 85.5452 38.1455 85.5627C34.7012 85.5802 31.2569 85.5627 27.8126 85.5627Z" fill="#1F304F"/>
<path d="M27.8274 70.1071C25.0824 70.1071 22.32 70.0896 19.5751 70.1246C18.561 70.1421 17.9141 69.9673 17.9141 68.7084C17.9141 67.4496 18.5435 67.2748 19.5751 67.2748C25.3796 67.2923 31.1842 67.2923 36.9713 67.2748C37.8805 67.2748 38.4749 67.4496 38.5099 68.5336C38.5274 69.6351 38.1777 70.1421 36.9888 70.1246C33.9117 70.0722 30.8695 70.1071 27.8274 70.1071Z" fill="#1F304F"/>
<path d="M76.415 86.2097C75.4359 84.4089 76.1528 83.762 78.006 83.762C84.9471 83.7795 91.8881 83.8144 98.8466 83.7445C100.962 83.727 100.77 84.7585 100.263 86.1398C93.3742 86.7692 86.4681 86.3321 79.5796 86.3496C78.548 86.3496 77.4466 86.6468 76.415 86.2097Z" fill="#1F304F"/>
<path d="M81.4667 75.1775C83.5298 75.1775 85.5928 75.2124 87.6559 75.16C88.8448 75.125 89.142 75.6845 89.142 76.7685C89.1595 77.9224 88.5476 78.0273 87.6559 78.0098C83.4249 77.9923 79.2113 77.9749 74.9802 77.9923C74.1061 77.9923 73.4766 77.9224 73.4766 76.751C73.4766 75.667 73.7739 75.125 74.9628 75.16C77.1482 75.2124 79.3162 75.1775 81.4667 75.1775Z" fill="#1F304F"/>
<path d="M79.9817 66.8901C81.7476 66.8901 83.5134 66.9251 85.2618 66.8727C86.4157 66.8377 86.7829 67.3098 86.7829 68.4287C86.7654 69.4952 86.3108 69.7225 85.3492 69.7051C81.7301 69.6701 78.0935 69.6351 74.4744 69.7051C73.2855 69.7225 72.9883 69.3029 72.9883 68.184C72.9883 67.1 73.4428 66.8552 74.387 66.8727C76.2577 66.9251 78.1285 66.9076 79.9817 66.8901Z" fill="#1F304F"/>
<path d="M76.4141 86.2096C78.215 85.318 80.0333 86.1572 81.8516 86.1397C87.9883 86.0698 94.1251 86.1222 100.262 86.1397C100.122 86.5943 99.7723 86.6467 99.3527 86.6467C92.0446 86.6467 84.7364 86.6467 77.4282 86.6118C77.096 86.6292 76.7638 86.367 76.4141 86.2096Z" fill="#1F304F"/>
</g>
<defs>
<clipPath id="clip0_166_392">
<rect width="118" height="97" fill="white"/>
</clipPath>
</defs>
</svg>
